<svg width="60" height="42" viewBox="0 0 60 42" fill="none" xmlns="http://www.w3.org/2000/svg">
<g clip-path="url(#clip0_16_126)">
<path d="M0 4C0 1.79086 1.79086 0 4 0H56C58.2091 0 60 1.79086 60 4V38C60 40.2091 58.2091 42 56 42H4C1.79086 42 0 40.2091 0 38V4Z" fill="white"/>
<g clip-path="url(#clip1_16_126)">
<path d="M44 35H30.0842H16V20.8609V7H29.8966H44V20.9991V35Z" fill="white"/>
<path d="M44.0013 35.0021V30.5642H40.623L38.8844 28.6427L37.1358 30.5642H25.9989V21.6015H22.4038L26.8627 11.5114H31.1634L32.6988 14.9684V11.5114H38.0215L38.9457 14.1165L39.8763 11.5114H44.0022V7.00214H16.0022V35.0021H44.0013ZM41.1921 29.4433H44.0013L40.2853 25.5032L44.0013 21.607H41.237L38.9421 24.1132L36.6691 21.6051H33.86L37.554 25.5233L33.86 29.4415H36.5914L38.8972 26.9114L41.1921 29.4415V29.4433ZM41.8491 25.5087L44.0013 27.7963V23.2348L41.8491 25.505V25.5087ZM29.3287 27.6288V26.4091H33.7502V24.6403H29.3287V23.4197H33.8627V21.6061H27.1876V29.4424H33.86V27.6288H29.3287ZM41.8885 20.4696H44.004V12.6332H40.7099L38.9521 17.514L37.2063 12.6332H33.8591V20.4696H35.9746V14.984L37.9877 20.4696H39.8681L41.8812 14.973V20.4696H41.8885ZM31.4571 20.4696H33.8636L30.4048 12.6332H27.6506L24.1917 20.4696H26.5425L27.1921 18.9021H30.7928L31.4534 20.4696H31.4571ZM30.058 17.1444H27.9306L28.9938 14.5823L30.058 17.1444Z" fill="#0072BB"/>
</g>
</g>
<defs>
<clipPath id="clip0_16_126">
<path d="M0 4C0 1.79086 1.79086 0 4 0H56C58.2091 0 60 1.79086 60 4V38C60 40.2091 58.2091 42 56 42H4C1.79086 42 0 40.2091 0 38V4Z" fill="white"/>
</clipPath>
<clipPath id="clip1_16_126">
<rect width="28" height="28" fill="white" transform="translate(16 7)"/>
</clipPath>
</defs>
</svg>
