<svg width="60" height="42" viewBox="0 0 60 42" fill="none" xmlns="http://www.w3.org/2000/svg">
<g clip-path="url(#clip0_16_127)">
<path d="M0 4C0 1.79086 1.79086 0 4 0H56C58.2091 0 60 1.79086 60 4V38C60 40.2091 58.2091 42 56 42H4C1.79086 42 0 40.2091 0 38V4Z" fill="white"/>
<path d="M19.6509 33.7206V32.0267C19.6607 31.8842 19.6404 31.7412 19.5913 31.6073C19.5421 31.4734 19.4653 31.3517 19.366 31.2501C19.2666 31.1486 19.147 31.0697 19.015 31.0186C18.8831 30.9675 18.742 30.9454 18.6009 30.9539C18.4164 30.9417 18.232 30.9798 18.0669 31.0642C17.9019 31.1486 17.7623 31.2763 17.6627 31.4338C17.5719 31.281 17.442 31.1557 17.2867 31.0713C17.1314 30.9868 16.9564 30.9463 16.7802 30.9539C16.6267 30.9461 16.4737 30.979 16.3366 31.0493C16.1995 31.1196 16.0829 31.2249 15.9983 31.3548V31.0216H15.4175V33.7206H16.0039V32.2243C15.9912 32.1319 15.9989 32.0379 16.0265 31.949C16.054 31.86 16.1007 31.7783 16.1631 31.7098C16.2256 31.6412 16.3023 31.5875 16.3878 31.5525C16.4732 31.5174 16.5653 31.502 16.6574 31.5072C17.0427 31.5072 17.2382 31.7613 17.2382 32.2186V33.7206H17.8246V32.2243C17.8129 32.1321 17.8213 32.0385 17.8492 31.9499C17.877 31.8614 17.9238 31.7801 17.986 31.7118C18.0483 31.6434 18.1246 31.5897 18.2096 31.5544C18.2946 31.519 18.3863 31.5029 18.4781 31.5072C18.8746 31.5072 19.0645 31.7613 19.0645 32.2186V33.7206H19.6509ZM28.33 31.0216H27.3805V30.2029H26.7941V31.0216H26.2523V31.558H26.7941V32.7889C26.7941 33.4157 27.0343 33.7884 27.7212 33.7884C27.9778 33.7891 28.2295 33.7167 28.4472 33.5794L28.2797 33.0769C28.1239 33.1708 27.9472 33.2233 27.7659 33.2294C27.4755 33.2294 27.3805 33.0486 27.3805 32.7777V31.558H28.33V31.0216ZM33.2838 30.9539C33.1422 30.9497 33.0021 30.9841 32.8783 31.0537C32.7544 31.1233 32.6514 31.2253 32.5801 31.3491V31.0216H32.0049V33.7206H32.5857V32.2073C32.5857 31.7613 32.7756 31.5129 33.1554 31.5129C33.2796 31.5111 33.403 31.5342 33.5184 31.5806L33.6971 31.0273C33.5645 30.9793 33.4247 30.9545 33.2838 30.9539ZM25.7944 31.2362C25.4656 31.0385 25.0876 30.9405 24.7053 30.9539C24.0295 30.9539 23.5939 31.2814 23.5939 31.8177C23.5939 32.2582 23.9178 32.5292 24.5154 32.6139L24.7891 32.6534C25.1074 32.6985 25.2582 32.7833 25.2582 32.9357C25.2582 33.1446 25.046 33.2632 24.6495 33.2632C24.3305 33.2725 24.0177 33.1731 23.7614 32.9809L23.4878 33.4382C23.8261 33.6771 24.2314 33.7999 24.6439 33.7884C25.4146 33.7884 25.8614 33.4213 25.8614 32.9075C25.8614 32.4332 25.5096 32.1847 24.9287 32.1L24.6551 32.0605C24.4037 32.0267 24.2027 31.9759 24.2027 31.7952C24.2027 31.5976 24.3925 31.479 24.7109 31.479C25.0032 31.4834 25.2896 31.5631 25.5431 31.7105L25.7944 31.2362ZM41.3541 30.9539C41.2125 30.9497 41.0724 30.9841 40.9485 31.0537C40.8247 31.1233 40.7217 31.2253 40.6504 31.3491V31.0216H40.0752V33.7206H40.656V32.2073C40.656 31.7613 40.8459 31.5129 41.2256 31.5129C41.3499 31.5111 41.4733 31.5342 41.5887 31.5806L41.7674 31.0273C41.6348 30.9793 41.495 30.9545 41.3541 30.9539ZM33.8702 32.3711C33.8625 32.5612 33.8943 32.7509 33.9634 32.9279C34.0325 33.1048 34.1376 33.2653 34.2717 33.3988C34.4059 33.5323 34.5662 33.6359 34.7423 33.703C34.9184 33.7701 35.1065 33.7992 35.2945 33.7884C35.6432 33.8061 35.9858 33.6913 36.255 33.4665L35.9758 32.9922C35.775 33.1469 35.5302 33.2321 35.2777 33.235C35.06 33.2216 34.8556 33.1248 34.7061 32.9643C34.5567 32.8037 34.4735 32.5916 34.4735 32.3711C34.4735 32.1506 34.5567 31.9385 34.7061 31.7779C34.8556 31.6174 35.06 31.5206 35.2777 31.5072C35.5302 31.5101 35.775 31.5953 35.9758 31.75L36.255 31.2757C35.9858 31.051 35.6432 30.9362 35.2945 30.9539C35.1065 30.9431 34.9185 30.9721 34.7423 31.0392C34.5662 31.1063 34.4059 31.21 34.2717 31.3434C34.1376 31.4769 34.0326 31.6373 33.9634 31.8143C33.8943 31.9913 33.8625 32.1809 33.8702 32.3711ZM39.31 32.3711V31.0216H38.7292V31.3491C38.63 31.22 38.5017 31.1167 38.355 31.0479C38.2083 30.9791 38.0474 30.9469 37.8858 30.9539C37.5259 30.9717 37.1866 31.1288 36.9381 31.3927C36.6896 31.6565 36.5511 32.0068 36.5511 32.3711C36.5511 32.7354 36.6896 33.0858 36.9381 33.3496C37.1866 33.6134 37.5259 33.7705 37.8858 33.7884C38.0474 33.7953 38.2083 33.7631 38.355 33.6943C38.5017 33.6255 38.63 33.5222 38.7292 33.3931V33.7206H39.31V32.3711ZM37.1486 32.3711C37.1576 32.2118 37.2126 32.0587 37.3066 31.9306C37.4007 31.8025 37.5297 31.705 37.6779 31.6502C37.8261 31.5954 37.9869 31.5857 38.1405 31.6222C38.2941 31.6586 38.4338 31.7398 38.5424 31.8556C38.6509 31.9714 38.7236 32.1167 38.7514 32.2738C38.7792 32.4308 38.7609 32.5926 38.6988 32.7393C38.6367 32.8859 38.5336 33.011 38.402 33.0991C38.2705 33.1872 38.1163 33.2344 37.9585 33.235C37.8479 33.2365 37.7382 33.2148 37.6363 33.1713C37.5344 33.1279 37.4425 33.0635 37.3664 32.9823C37.2903 32.9012 37.2317 32.805 37.1942 32.6998C37.1567 32.5945 37.1412 32.4826 37.1486 32.3711ZM30.1395 30.9539C29.7773 30.9732 29.4365 31.1335 29.1887 31.4013C28.9409 31.6691 28.8053 32.0235 28.8104 32.3901C28.8154 32.7568 28.9608 33.1072 29.2159 33.3679C29.471 33.6286 29.816 33.7793 30.1786 33.7884C30.5771 33.8025 30.9668 33.6678 31.2733 33.41L30.9884 32.9753C30.7679 33.154 30.4947 33.2533 30.2121 33.2576C30.0202 33.2739 29.8295 33.2141 29.6804 33.0908C29.5314 32.9674 29.4356 32.7903 29.4135 32.5969H31.3961C31.4017 32.5235 31.4073 32.4501 31.4073 32.3711C31.4017 31.5298 30.8879 30.9539 30.1395 30.9539ZM30.1283 31.479C30.3038 31.4755 30.4734 31.5425 30.6001 31.6653C30.7267 31.7881 30.8001 31.9566 30.8041 32.134H29.419C29.4292 31.9528 29.5091 31.7828 29.6417 31.6604C29.7742 31.538 29.9489 31.4729 30.1283 31.479ZM44.6995 32.3711V29.9376H44.1187V31.3491C44.0195 31.22 43.8912 31.1167 43.7445 31.0479C43.5978 30.9791 43.4369 30.9469 43.2754 30.9539C42.9154 30.9717 42.5761 31.1288 42.3276 31.3926C42.0791 31.6565 41.9405 32.0068 41.9405 32.3711C41.9405 32.7354 42.0791 33.0858 42.3276 33.3496C42.5761 33.6134 42.9154 33.7705 43.2754 33.7884C43.4369 33.7953 43.5978 33.7631 43.7445 33.6943C43.8912 33.6255 44.0195 33.5222 44.1187 33.3931V33.7206H44.6995V32.3711ZM45.6678 33.3294C45.7038 33.3292 45.7396 33.3364 45.7728 33.3505C45.8048 33.364 45.8339 33.3835 45.8587 33.408C45.8832 33.4325 45.9029 33.4615 45.9165 33.4935C45.9305 33.5264 45.9377 33.5618 45.9377 33.5976C45.9377 33.6333 45.9305 33.6688 45.9165 33.7016C45.9028 33.7335 45.8832 33.7624 45.8587 33.7868C45.8339 33.8113 45.8048 33.8309 45.7728 33.8446C45.7396 33.859 45.7039 33.8662 45.6678 33.866C45.6146 33.8665 45.5625 33.8512 45.5179 33.822C45.4733 33.7928 45.4383 33.7509 45.4171 33.7016C45.4031 33.6687 45.396 33.6333 45.396 33.5976C45.396 33.5618 45.4031 33.5264 45.4171 33.4935C45.4307 33.4616 45.4502 33.4325 45.4747 33.408C45.4994 33.3833 45.5287 33.3638 45.5608 33.3505C45.5947 33.3363 45.6311 33.3292 45.6678 33.3294ZM45.6678 33.8068C45.6953 33.807 45.7225 33.8014 45.7478 33.7904C45.7721 33.7797 45.7941 33.7646 45.8128 33.7457C45.8514 33.7063 45.873 33.6531 45.873 33.5977C45.873 33.5423 45.8514 33.4891 45.8128 33.4497C45.7941 33.4309 45.7721 33.4158 45.7478 33.4054C45.7225 33.3945 45.6952 33.389 45.6678 33.3893C45.6398 33.3891 45.612 33.3946 45.5862 33.4054C45.5615 33.4157 45.5391 33.4307 45.5202 33.4497C45.4816 33.4891 45.4599 33.5423 45.4599 33.5977C45.4599 33.6531 45.4816 33.7063 45.5202 33.7457C45.5391 33.7647 45.5615 33.7799 45.5862 33.7904C45.612 33.8014 45.6397 33.807 45.6678 33.8068ZM45.6834 33.4721C45.7095 33.4704 45.7354 33.478 45.7566 33.4935C45.765 33.5005 45.7717 33.5094 45.7762 33.5195C45.7806 33.5296 45.7827 33.5406 45.7822 33.5517C45.7825 33.5612 45.7809 33.5706 45.7773 33.5793C45.7738 33.5881 45.7685 33.596 45.7618 33.6026C45.7456 33.6171 45.7251 33.6258 45.7035 33.6273L45.7842 33.7213H45.7211L45.6463 33.6279H45.6223V33.7213H45.5696V33.4721H45.6834ZM45.6223 33.5188V33.5852H45.6828C45.6944 33.5858 45.7059 33.5829 45.7159 33.577C45.72 33.5742 45.7233 33.5704 45.7254 33.566C45.7276 33.5616 45.7286 33.5566 45.7283 33.5517C45.7285 33.5468 45.7275 33.542 45.7254 33.5377C45.7232 33.5333 45.72 33.5297 45.7159 33.527C45.7059 33.5211 45.6944 33.5182 45.6828 33.5188H45.6223ZM42.5382 32.3711C42.5472 32.2118 42.6021 32.0587 42.6962 31.9306C42.7902 31.8025 42.9193 31.7051 43.0675 31.6503C43.2157 31.5955 43.3765 31.5858 43.5301 31.6222C43.6837 31.6587 43.8233 31.7399 43.9319 31.8557C44.0404 31.9714 44.113 32.1168 44.1408 32.2738C44.1686 32.4309 44.1504 32.5927 44.0883 32.7393C44.0262 32.886 43.923 33.011 43.7915 33.0991C43.6599 33.1872 43.5057 33.2344 43.3479 33.235C43.2374 33.2365 43.1277 33.2148 43.0258 33.1713C42.9239 33.1278 42.832 33.0635 42.7559 32.9823C42.6798 32.9012 42.6212 32.8049 42.5837 32.6997C42.5462 32.5945 42.5307 32.4826 42.5382 32.3711ZM22.9237 32.3711V31.0216H22.3428V31.3491C22.2437 31.22 22.1154 31.1167 21.9687 31.0479C21.822 30.9791 21.6611 30.9469 21.4995 30.9539C21.1396 30.9717 20.8003 31.1288 20.5518 31.3927C20.3033 31.6565 20.1647 32.0068 20.1647 32.3711C20.1647 32.7354 20.3033 33.0858 20.5518 33.3496C20.8003 33.6134 21.1396 33.7705 21.4995 33.7884C21.6611 33.7953 21.822 33.7631 21.9687 33.6943C22.1154 33.6255 22.2437 33.5222 22.3428 33.3931V33.7206H22.9237V32.3711ZM20.7623 32.3711C20.7714 32.2118 20.8263 32.0587 20.9204 31.9306C21.0144 31.8025 21.1435 31.7051 21.2917 31.6503C21.4399 31.5955 21.6007 31.5858 21.7543 31.6222C21.9079 31.6587 22.0475 31.7399 22.1561 31.8557C22.2646 31.9714 22.3372 32.1168 22.365 32.2738C22.3928 32.4309 22.3745 32.5927 22.3125 32.7393C22.2504 32.886 22.1472 33.0111 22.0156 33.0991C21.8841 33.1872 21.7299 33.2344 21.5721 33.235C21.4615 33.2365 21.3518 33.2148 21.2499 33.1713C21.148 33.1278 21.0562 33.0635 20.9801 32.9823C20.904 32.9012 20.8454 32.8049 20.8079 32.6997C20.7704 32.5945 20.7549 32.4826 20.7623 32.3711Z" fill="#231F20"/>
<path d="M34.3989 10.4529H25.6013V26.4361H34.3989V10.4529Z" fill="#FF5F00"/>
<path d="M26.1599 18.4444C26.1585 16.9051 26.5035 15.3857 27.1688 14.0012C27.8342 12.6166 28.8023 11.4032 30.0001 10.4528C28.5168 9.27419 26.7355 8.5412 24.8597 8.33766C22.9839 8.13411 21.0893 8.46823 19.3925 9.30182C17.6957 10.1354 16.265 11.4348 15.2641 13.0516C14.2632 14.6683 13.7324 16.5371 13.7324 18.4444C13.7324 20.3517 14.2632 22.2206 15.2641 23.8373C16.265 25.4541 17.6957 26.7535 19.3925 27.5871C21.0893 28.4207 22.9839 28.7548 24.8597 28.5512C26.7355 28.3477 28.5168 27.6147 30.0001 26.436C28.8023 25.4857 27.8342 24.2723 27.1688 22.8877C26.5035 21.5032 26.1585 19.9837 26.1599 18.4444Z" fill="#EB001B"/>
<path d="M46.2674 18.4444C46.2674 20.3517 45.7367 22.2205 44.7359 23.8373C43.735 25.454 42.3044 26.7535 40.6076 27.5871C38.9108 28.4207 37.0162 28.7548 35.1405 28.5512C33.2647 28.3477 31.4834 27.6147 30.0002 26.436C31.1969 25.4847 32.1643 24.2711 32.8295 22.8868C33.4948 21.5025 33.8404 19.9835 33.8404 18.4444C33.8404 16.9054 33.4948 15.3864 32.8295 14.0021C32.1643 12.6177 31.1969 11.4042 30.0002 10.4528C31.4834 9.27419 33.2647 8.54119 35.1405 8.33765C37.0162 8.13411 38.9108 8.46824 40.6076 9.30183C42.3044 10.1354 43.735 11.4349 44.7359 13.0516C45.7367 14.6684 46.2674 16.5372 46.2674 18.4444Z" fill="#F79E1B"/>
<path d="M45.3081 24.7429V24.4156H45.4386V24.349H45.1062V24.4156H45.2368V24.7429H45.3081ZM45.9534 24.7429V24.3483H45.8515L45.7343 24.6197L45.6171 24.3483H45.5151V24.7429H45.5871V24.4453L45.697 24.7018H45.7716L45.8815 24.4446V24.7429H45.9534Z" fill="#F79E1B"/>
</g>
<defs>
<clipPath id="clip0_16_127">
<path d="M0 4C0 1.79086 1.79086 0 4 0H56C58.2091 0 60 1.79086 60 4V38C60 40.2091 58.2091 42 56 42H4C1.79086 42 0 40.2091 0 38V4Z" fill="white"/>
</clipPath>
</defs>
</svg>
