<svg width="60" height="42" viewBox="0 0 60 42" fill="none" xmlns="http://www.w3.org/2000/svg">
<g clip-path="url(#clip0_161_898)">
<path d="M0 4C0 1.79086 1.79086 0 4 0H56C58.2091 0 60 1.79086 60 4V38C60 40.2091 58.2091 42 56 42H4C1.79086 42 0 40.2091 0 38V4Z" fill="white"/>
<path fill-rule="evenodd" clip-rule="evenodd" d="M27.1326 20.7061L27.3946 19.0305L26.811 19.0168H24.0239L25.9608 6.65176C25.9669 6.61432 25.9864 6.57956 26.0148 6.55483C26.0435 6.5301 26.08 6.51654 26.1181 6.51654H30.8175C32.3777 6.51654 33.4544 6.84335 34.0164 7.4885C34.28 7.79115 34.4478 8.1075 34.5291 8.45551C34.6143 8.82075 34.6157 9.25707 34.5326 9.78932L34.5265 9.82803V10.1691L34.7901 10.3195C35.012 10.438 35.1884 10.5736 35.3236 10.7289C35.549 10.9878 35.6948 11.3167 35.7564 11.7065C35.8202 12.1075 35.7991 12.5848 35.6948 13.1251C35.5746 13.7465 35.3802 14.2878 35.1176 14.7306C34.8763 15.1387 34.5687 15.4772 34.2034 15.7395C33.8546 15.9887 33.4404 16.1779 32.9719 16.299C32.5179 16.418 32.0004 16.478 31.4327 16.478H31.067C30.8056 16.478 30.5516 16.5728 30.3522 16.7428C30.1522 16.9163 30.02 17.1534 29.9794 17.4127L29.9518 17.5636L29.4888 20.517L29.4679 20.6254C29.4623 20.6597 29.4528 20.6768 29.4387 20.6884C29.4262 20.699 29.4083 20.7061 29.3907 20.7061H27.1326Z" fill="#28356A"/>
<path fill-rule="evenodd" clip-rule="evenodd" d="M35.0395 9.86749C35.0256 9.95778 35.0095 10.05 34.9915 10.1449C34.3718 13.3485 32.2515 14.4553 29.5436 14.4553H28.1648C27.8336 14.4553 27.5545 14.6973 27.503 15.0263L26.5971 20.8115C26.5636 21.0276 26.7289 21.2221 26.9453 21.2221H29.3907C29.6803 21.2221 29.9263 21.0103 29.9719 20.7228L29.9959 20.5977L30.4563 17.6559L30.4859 17.4945C30.531 17.206 30.7775 16.994 31.067 16.994H31.4327C33.802 16.994 35.6568 16.0256 36.1989 13.2229C36.4253 12.0522 36.3081 11.0746 35.7089 10.387C35.5276 10.1798 35.3026 10.0077 35.0395 9.86749Z" fill="#298FC2"/>
<path fill-rule="evenodd" clip-rule="evenodd" d="M34.3912 9.60719C34.2965 9.57935 34.1988 9.5542 34.0986 9.53146C33.9979 9.50927 33.8947 9.48963 33.7885 9.4724C33.4168 9.41192 33.0094 9.38324 32.5731 9.38324H28.8897C28.7989 9.38324 28.7128 9.40387 28.6357 9.44117C28.4658 9.5234 28.3396 9.68533 28.309 9.88356L27.5254 14.8805L27.5029 15.0262C27.5544 14.6973 27.8336 14.4552 28.1647 14.4552H29.5435C32.2514 14.4552 34.3717 13.3479 34.9915 10.1448C35.01 10.05 35.0256 9.95774 35.0394 9.86745C34.8827 9.78367 34.7129 9.71203 34.53 9.65099C34.4848 9.63587 34.4383 9.62132 34.3912 9.60719Z" fill="#22284F"/>
<path fill-rule="evenodd" clip-rule="evenodd" d="M28.3091 9.88359C28.3397 9.68536 28.4658 9.52343 28.6358 9.44177C28.7134 9.40432 28.799 9.38369 28.8898 9.38369H32.5731C33.0094 9.38369 33.4168 9.41252 33.7886 9.47299C33.8948 9.49009 33.998 9.50987 34.0987 9.53205C34.1989 9.55466 34.2966 9.57995 34.3913 9.60764C34.4383 9.62177 34.4849 9.63647 34.5305 9.65102C34.7134 9.71206 34.8833 9.78426 35.0401 9.86748C35.2245 8.68359 35.0385 7.87751 34.4028 7.14759C33.7019 6.34391 32.4369 6 30.8181 6H26.1186C25.788 6 25.5059 6.24204 25.4548 6.57153L23.4974 19.0637C23.4588 19.3108 23.6482 19.5338 23.8957 19.5338H26.797L28.3091 9.88359Z" fill="#28356A"/>
<path fill-rule="evenodd" clip-rule="evenodd" d="M13.2863 24.1071H9.85993C9.62543 24.1071 9.42601 24.2786 9.38939 24.5117L8.00358 33.3578C7.97608 33.5325 8.11038 33.6897 8.28622 33.6897H9.92196C10.1565 33.6897 10.3559 33.5183 10.3925 33.2848L10.7662 30.8987C10.8023 30.6652 11.0021 30.4937 11.2362 30.4937H12.3208C14.5778 30.4937 15.8804 29.394 16.2207 27.2149C16.374 26.2615 16.2272 25.5125 15.7837 24.9879C15.2968 24.4118 14.433 24.1071 13.2863 24.1071ZM13.6815 27.3381C13.4942 28.5759 12.5548 28.5759 11.6465 28.5759H11.1294L11.4922 26.2641C11.5138 26.1243 11.6339 26.0215 11.7742 26.0215H12.0113C12.63 26.0215 13.2136 26.0215 13.5152 26.3766C13.6951 26.5884 13.7501 26.9032 13.6815 27.3381Z" fill="#28356A"/>
<path fill-rule="evenodd" clip-rule="evenodd" d="M23.6158 27.2313H21.975C21.8352 27.2313 21.7144 27.3342 21.6929 27.4739L21.6202 27.9359L21.5056 27.7685C21.1504 27.2494 20.3582 27.0759 19.5677 27.0759C17.7545 27.0759 16.2059 28.4586 15.9043 30.3981C15.7475 31.3655 15.9704 32.2907 16.5156 32.9359C17.0156 33.529 17.731 33.7763 18.5821 33.7763C20.0432 33.7763 20.8532 32.8305 20.8532 32.8305L20.7801 33.2895C20.7526 33.465 20.8869 33.6224 21.0617 33.6224H22.5396C22.7746 33.6224 22.9731 33.4509 23.0101 33.2173L23.8969 27.5632C23.925 27.3891 23.7911 27.2313 23.6158 27.2313ZM21.3285 30.4466C21.1702 31.3903 20.4263 32.0238 19.4774 32.0238C19.0009 32.0238 18.6202 31.87 18.3756 31.5785C18.1331 31.289 18.0411 30.8768 18.1181 30.4177C18.266 29.4821 19.0224 28.8278 19.9569 28.8278C20.4228 28.8278 20.8016 28.9838 21.0511 29.2776C21.301 29.5748 21.4002 29.9895 21.3285 30.4466Z" fill="#28356A"/>
<path fill-rule="evenodd" clip-rule="evenodd" d="M32.228 27.3727H30.5791C30.4218 27.3727 30.274 27.4514 30.1849 27.5831L27.9108 30.9557L26.9468 27.7147C26.8862 27.5119 26.7004 27.3727 26.4899 27.3727H24.8697C24.6727 27.3727 24.536 27.5665 24.5986 27.7531L26.4148 33.1191L24.7073 35.546C24.573 35.7372 24.7083 36 24.9403 36H26.5871C26.7435 36 26.8897 35.9233 26.9784 35.7943L32.4624 27.8242C32.5937 27.6336 32.4588 27.3727 32.228 27.3727Z" fill="#28356A"/>
<path fill-rule="evenodd" clip-rule="evenodd" d="M37.7249 24.1071H34.2981C34.0642 24.1071 33.8647 24.2786 33.8281 24.5117L32.4423 33.3578C32.4148 33.5325 32.5491 33.6897 32.724 33.6897H34.4825C34.6457 33.6897 34.7855 33.5698 34.811 33.4063L35.2044 30.8987C35.2404 30.6652 35.4404 30.4937 35.6743 30.4937H36.7586C39.016 30.4937 40.3182 29.394 40.6589 27.2149C40.8127 26.2615 40.6649 25.5125 40.2215 24.9879C39.7349 24.4118 38.8717 24.1071 37.7249 24.1071ZM38.1202 27.3381C37.9332 28.5759 36.9938 28.5759 36.085 28.5759H35.5686L35.9318 26.2641C35.9533 26.1243 36.0725 26.0215 36.2133 26.0215H36.4503C37.0685 26.0215 37.6527 26.0215 37.9543 26.3766C38.1342 26.5884 38.1888 26.9032 38.1202 27.3381Z" fill="#298FC2"/>
<path fill-rule="evenodd" clip-rule="evenodd" d="M48.0523 27.2313H46.4125C46.2718 27.2313 46.152 27.3342 46.131 27.4739L46.0583 27.9359L45.9431 27.7685C45.5879 27.2494 44.7963 27.0759 44.0056 27.0759C42.1925 27.0759 40.6445 28.4586 40.3429 30.3981C40.1866 31.3655 40.4084 32.2907 40.9535 32.9359C41.4546 33.529 42.1689 33.7763 43.0202 33.7763C44.4811 33.7763 45.2912 32.8305 45.2912 32.8305L45.2181 33.2895C45.1906 33.465 45.3248 33.6224 45.5008 33.6224H46.9782C47.2121 33.6224 47.4116 33.4509 47.4482 33.2173L48.3354 27.5632C48.3625 27.3891 48.2282 27.2313 48.0523 27.2313ZM45.7653 30.4466C45.608 31.3903 44.8629 32.0238 43.914 32.0238C43.4385 32.0238 43.0568 31.87 42.8122 31.5785C42.5699 31.289 42.4786 30.8768 42.5547 30.4177C42.7036 29.4821 43.459 28.8278 44.3935 28.8278C44.8594 28.8278 45.2382 28.9838 45.4877 29.2776C45.7386 29.5748 45.8378 29.9895 45.7653 30.4466Z" fill="#298FC2"/>
<path fill-rule="evenodd" clip-rule="evenodd" d="M49.8501 24.3502L48.4438 33.3582C48.4163 33.5329 48.5504 33.6901 48.7253 33.6901H50.1392C50.3742 33.6901 50.5735 33.5188 50.6096 33.2852L51.9963 24.4395C52.024 24.2649 51.8897 24.1071 51.7148 24.1071H50.1317C49.9919 24.1075 49.8717 24.2105 49.8501 24.3502Z" fill="#298FC2"/>
</g>
<defs>
<clipPath id="clip0_161_898">
<path d="M0 4C0 1.79086 1.79086 0 4 0H56C58.2091 0 60 1.79086 60 4V38C60 40.2091 58.2091 42 56 42H4C1.79086 42 0 40.2091 0 38V4Z" fill="white"/>
</clipPath>
</defs>
</svg>
