<svg width="60" height="42" viewBox="0 0 60 42" fill="none" xmlns="http://www.w3.org/2000/svg">
<g clip-path="url(#clip0_167_1071)">
<path d="M0 4C0 1.79086 1.79086 0 4 0H56C58.2091 0 60 1.79086 60 4V38C60 40.2091 58.2091 42 56 42H4C1.79086 42 0 40.2091 0 38V4Z" fill="white"/>
<path d="M36.6524 14.0216C33.5313 14.0216 30.7422 15.6069 30.7422 18.5359C30.7422 21.8949 35.6888 22.1269 35.6888 23.8143C35.6888 24.5248 34.8579 25.1609 33.4388 25.1609C31.4248 25.1609 29.9195 24.2721 29.9195 24.2721L29.2754 27.2278C29.2754 27.2278 31.0095 27.9785 33.3117 27.9785C36.724 27.9785 39.4091 26.3153 39.4091 23.3363C39.4091 19.7869 34.4418 19.5618 34.4418 17.9956C34.4418 17.439 35.1239 16.8291 36.539 16.8291C38.1356 16.8291 39.4383 17.4755 39.4383 17.4755L40.0686 14.6208C40.0686 14.6208 38.6512 14.0216 36.6524 14.0216ZM8.09779 14.2371L8.02222 14.6679C8.02222 14.6679 9.33525 14.9034 10.5178 15.3732C12.0405 15.9119 12.149 16.2255 12.4055 17.1994L15.1999 27.7563H18.9459L24.717 14.2371H20.9795L17.2713 23.4289L15.7581 15.6375C15.6194 14.7457 14.9164 14.2371 14.056 14.2371H8.09779ZM26.2199 14.2371L23.288 27.7563H26.8519L29.7735 14.2371H26.2199ZM46.0973 14.2371C45.2379 14.2371 44.7825 14.6879 44.4484 15.4759L39.227 27.7563H42.9644L43.6875 25.7096H48.2408L48.6805 27.7563H51.9782L49.1013 14.2371H46.0973ZM46.5833 17.8895L47.6912 22.9626H44.7232L46.5833 17.8895Z" fill="#1434CB"/>
</g>
<defs>
<clipPath id="clip0_167_1071">
<path d="M0 4C0 1.79086 1.79086 0 4 0H56C58.2091 0 60 1.79086 60 4V38C60 40.2091 58.2091 42 56 42H4C1.79086 42 0 40.2091 0 38V4Z" fill="white"/>
</clipPath>
</defs>
</svg>
